<mxfile host="app.diagrams.net" agent="Mozilla/5.0 (X11; Linux x86_64) AppleWebKit/537.36 (KHTML, like Gecko) Chrome/135.0.0.0 Safari/537.36" version="26.2.14">
  <diagram name="Страница — 1" id="i_qbEpHeZQs8Am3gkcBJ">
    <mxGraphModel dx="2549" dy="2130" grid="1" gridSize="10" guides="1" tooltips="1" connect="1" arrows="1" fold="1" page="1" pageScale="1" pageWidth="827" pageHeight="1169" math="0" shadow="0">
      <root>
        <mxCell id="0" />
        <mxCell id="1" parent="0" />
        <mxCell id="Ed5648H676JGlzeESFqL-32" value="&lt;font style=&quot;font-size: 38px;&quot;&gt;MESH&lt;/font&gt;" style="ellipse;shape=cloud;whiteSpace=wrap;html=1;" vertex="1" parent="1">
          <mxGeometry x="-170" y="-180" width="2040" height="1210" as="geometry" />
        </mxCell>
        <mxCell id="2" value="ДРОН" style="whiteSpace=wrap;strokeWidth=2;fontStyle=1;fontSize=20;" parent="1" vertex="1">
          <mxGeometry x="270" y="150" width="482" height="322" as="geometry" />
        </mxCell>
        <mxCell id="6" value="Полетный контроллер" style="whiteSpace=wrap;strokeWidth=2;" parent="1" vertex="1">
          <mxGeometry x="402" y="170" width="225" height="54" as="geometry" />
        </mxCell>
        <mxCell id="7" value="ESP32" style="whiteSpace=wrap;strokeWidth=2;" parent="1" vertex="1">
          <mxGeometry x="422.5" y="350" width="184" height="54" as="geometry" />
        </mxCell>
        <mxCell id="Ed5648H676JGlzeESFqL-11" value="ДРОН" style="whiteSpace=wrap;strokeWidth=2;fontSize=20;" vertex="1" parent="1">
          <mxGeometry x="676.5" y="670" width="295" height="254" as="geometry" />
        </mxCell>
        <mxCell id="Ed5648H676JGlzeESFqL-12" value="Полетный контроллер" style="whiteSpace=wrap;strokeWidth=2;" vertex="1" parent="1">
          <mxGeometry x="711" y="695" width="225" height="54" as="geometry" />
        </mxCell>
        <mxCell id="Ed5648H676JGlzeESFqL-13" value="ESP32-ROOT" style="whiteSpace=wrap;strokeWidth=2;" vertex="1" parent="1">
          <mxGeometry x="732" y="845" width="184" height="54" as="geometry" />
        </mxCell>
        <mxCell id="Ed5648H676JGlzeESFqL-21" value="UART" style="endArrow=classic;startArrow=classic;html=1;rounded=0;exitX=0.25;exitY=0;exitDx=0;exitDy=0;" edge="1" parent="1" source="7" target="6">
          <mxGeometry x="0.2674" y="1" width="50" height="50" relative="1" as="geometry">
            <mxPoint x="652" y="480" as="sourcePoint" />
            <mxPoint x="702" y="430" as="targetPoint" />
            <Array as="points">
              <mxPoint x="469" y="290" />
            </Array>
            <mxPoint x="1" as="offset" />
          </mxGeometry>
        </mxCell>
        <mxCell id="Ed5648H676JGlzeESFqL-23" value="ДРОН" style="whiteSpace=wrap;strokeWidth=2;fontStyle=1;fontSize=20;" vertex="1" parent="1">
          <mxGeometry x="1042" y="160" width="482" height="322" as="geometry" />
        </mxCell>
        <mxCell id="Ed5648H676JGlzeESFqL-24" value="Полетный контроллер" style="whiteSpace=wrap;strokeWidth=2;" vertex="1" parent="1">
          <mxGeometry x="1174" y="180" width="225" height="54" as="geometry" />
        </mxCell>
        <mxCell id="Ed5648H676JGlzeESFqL-25" value="ESP32" style="whiteSpace=wrap;strokeWidth=2;" vertex="1" parent="1">
          <mxGeometry x="1194.5" y="360" width="184" height="54" as="geometry" />
        </mxCell>
        <mxCell id="Ed5648H676JGlzeESFqL-26" value="UART" style="endArrow=classic;startArrow=classic;html=1;rounded=0;exitX=0.25;exitY=0;exitDx=0;exitDy=0;" edge="1" parent="1" source="Ed5648H676JGlzeESFqL-25" target="Ed5648H676JGlzeESFqL-24">
          <mxGeometry x="0.2674" y="1" width="50" height="50" relative="1" as="geometry">
            <mxPoint x="1424" y="490" as="sourcePoint" />
            <mxPoint x="1474" y="440" as="targetPoint" />
            <Array as="points">
              <mxPoint x="1241" y="300" />
            </Array>
            <mxPoint x="1" as="offset" />
          </mxGeometry>
        </mxCell>
        <mxCell id="11" value="MAV-Link" style="curved=1;startArrow=block;endArrow=block;entryX=1;entryY=0.5;exitX=0;exitY=0.25;exitDx=0;exitDy=0;entryDx=0;entryDy=0;" parent="1" source="Ed5648H676JGlzeESFqL-25" target="7" edge="1">
          <mxGeometry relative="1" as="geometry">
            <Array as="points">
              <mxPoint x="982" y="540" />
              <mxPoint x="862" y="460" />
              <mxPoint x="812" y="480" />
              <mxPoint x="672" y="387" />
            </Array>
            <mxPoint x="1132" y="620" as="sourcePoint" />
            <mxPoint as="offset" />
          </mxGeometry>
        </mxCell>
        <mxCell id="Ed5648H676JGlzeESFqL-30" value="MAV-Link" style="curved=1;startArrow=block;endArrow=block;entryX=1;entryY=0.5;entryDx=0;entryDy=0;" edge="1" parent="1" source="Ed5648H676JGlzeESFqL-25">
          <mxGeometry relative="1" as="geometry">
            <Array as="points">
              <mxPoint x="1262" y="570" />
              <mxPoint x="1162" y="670" />
              <mxPoint x="1117" y="966" />
              <mxPoint x="977" y="873" />
            </Array>
            <mxPoint x="1500" y="860" as="sourcePoint" />
            <mxPoint x="912" y="863" as="targetPoint" />
            <mxPoint as="offset" />
          </mxGeometry>
        </mxCell>
        <mxCell id="Ed5648H676JGlzeESFqL-31" value="MAV-Link" style="curved=1;startArrow=block;endArrow=block;entryX=0;entryY=0.5;entryDx=0;entryDy=0;" edge="1" parent="1" target="Ed5648H676JGlzeESFqL-13">
          <mxGeometry relative="1" as="geometry">
            <Array as="points">
              <mxPoint x="502" y="560" />
              <mxPoint x="452" y="650" />
              <mxPoint x="452" y="680" />
              <mxPoint x="502" y="810" />
            </Array>
            <mxPoint x="523" y="404" as="sourcePoint" />
            <mxPoint x="152" y="853" as="targetPoint" />
            <mxPoint as="offset" />
          </mxGeometry>
        </mxCell>
        <mxCell id="Ed5648H676JGlzeESFqL-33" value="Роутер" style="shape=hexagon;perimeter=hexagonPerimeter2;whiteSpace=wrap;html=1;fixedSize=1;" vertex="1" parent="1">
          <mxGeometry x="280" y="1000" width="280" height="190" as="geometry" />
        </mxCell>
        <mxCell id="Ed5648H676JGlzeESFqL-35" value="wi-fi" style="curved=1;endArrow=classic;html=1;rounded=0;exitX=1;exitY=0.5;exitDx=0;exitDy=0;" edge="1" parent="1" source="Ed5648H676JGlzeESFqL-33" target="Ed5648H676JGlzeESFqL-13">
          <mxGeometry width="50" height="50" relative="1" as="geometry">
            <mxPoint x="800" y="670" as="sourcePoint" />
            <mxPoint x="850" y="620" as="targetPoint" />
            <Array as="points">
              <mxPoint x="700" y="1040" />
              <mxPoint x="780" y="1000" />
            </Array>
          </mxGeometry>
        </mxCell>
        <mxCell id="Ed5648H676JGlzeESFqL-36" value="UART" style="endArrow=classic;startArrow=classic;html=1;rounded=0;entryX=0.474;entryY=0.988;entryDx=0;entryDy=0;entryPerimeter=0;exitX=0.25;exitY=0;exitDx=0;exitDy=0;" edge="1" parent="1" source="Ed5648H676JGlzeESFqL-13" target="Ed5648H676JGlzeESFqL-12">
          <mxGeometry x="0.2674" y="1" width="50" height="50" relative="1" as="geometry">
            <mxPoint x="479" y="360" as="sourcePoint" />
            <mxPoint x="511" y="234" as="targetPoint" />
            <Array as="points">
              <mxPoint x="790" y="790" />
            </Array>
            <mxPoint x="1" as="offset" />
          </mxGeometry>
        </mxCell>
      </root>
    </mxGraphModel>
  </diagram>
</mxfile>
